<?xml version="1.0"?><svg enable-background="new 0 0 32 32" id="Filled_Outline" version="1.1" viewBox="0 0 32 32" xml:space="preserve" xmlns="http://www.w3.org/2000/svg" xmlns:xlink="http://www.w3.org/1999/xlink"><title/><desc/><g><g><circle cx="14" cy="14" fill="#FFF3AE" r="7"/><path d="M29,25c0,3.721-3.399,6.658-7.257,5.872c-2.274-0.464-4.12-2.293-4.603-4.563    c-0.485-2.275,0.333-4.415,1.861-5.769V5c0-2.209,1.791-4,4-4h0c2.209,0,4,1.791,4,4v15.54C28.23,21.63,29,23.23,29,25z" fill="#C9F9FB"/><path d="M24,22.184V6h-2v16.184c-1.163,0.413-2,1.512-2,2.816c0,1.657,1.343,3,3,3s3-1.343,3-3    C26,23.696,25.163,22.597,24,22.184z" fill="#D62144"/></g><g><path d="M28,20.111V5c0-2.757-2.243-5-5-5s-5,2.243-5,5v2.079C16.795,6.38,15.427,6,14,6c-4.411,0-8,3.589-8,8    s3.589,8,8,8c1.037,0,2.045-0.199,2.981-0.575c-0.897,1.494-1.204,3.289-0.82,5.091c0.564,2.649,2.727,4.794,5.381,5.335    c0.482,0.099,0.966,0.146,1.445,0.146c1.612,0,3.174-0.545,4.435-1.575C29.061,29.086,30,27.109,30,25    C30,23.162,29.276,21.405,28,20.111z M8,14c0-3.309,2.691-6,6-6c1.49,0,2.898,0.548,4,1.537v8.925C16.898,19.452,15.49,20,14,20    C10.691,20,8,17.309,8,14z M26.158,28.874c-1.169,0.956-2.706,1.323-4.216,1.019c-1.887-0.385-3.424-1.909-3.825-3.793    c-0.387-1.812,0.191-3.611,1.545-4.812C19.877,21.099,20,20.826,20,20.54V5c0-1.654,1.346-3,3-3s3,1.346,3,3v15.54    c0,0.286,0.123,0.559,0.337,0.748C27.394,22.225,28,23.578,28,25C28,26.506,27.329,27.918,26.158,28.874z" fill="#1A1A1A"/><rect fill="#1A1A1A" height="4" width="2" x="13"/><rect fill="#1A1A1A" height="4.001" transform="matrix(0.7072 -0.707 0.707 0.7072 -2.284 5.5137)" width="2" x="4.515" y="3.514"/><rect fill="#1A1A1A" height="2" transform="matrix(0.7071 -0.7071 0.7071 0.7071 -14.2848 10.4852)" width="4.001" x="3.514" y="21.486"/><rect fill="#1A1A1A" height="2" width="4" y="13"/><rect fill="#1A1A1A" height="4" width="2" x="13" y="24"/></g></g></svg>